<svg xmlns="http://www.w3.org/2000/svg" xmlns:xlink="http://www.w3.org/1999/xlink" viewBox="0,0,256,256" width="50px" height="50px"><g fill="#ababab" fill-rule="nonzero" stroke="none" stroke-width="1" stroke-linecap="butt" stroke-linejoin="miter" stroke-miterlimit="10" stroke-dasharray="" stroke-dashoffset="0" font-family="none" font-weight="none" font-size="none" text-anchor="none" style="mix-blend-mode: normal"><g transform="scale(5.12,5.12)"><path d="M37.035,5.621l-6.035,-3.621l4.715,5.196c3.435,3.878 5.285,7.548 5.285,11.804c0,5.732 -3.358,8 -7,8c-4.851,0 -6,-3.783 -6,-5c0,-3.914 3.548,-7.157 6.758,-8.288l1.59,-0.559l-4.697,-4.511c-0.504,0.322 -0.856,0.564 -0.856,0.564c-0.418,0.286 -1.04,0.766 -1.776,1.501c0,0 -1.098,1.23 -2.02,2.293c0,-2 0.357,-3.296 0.357,-3.296c0.357,-1.15 1.036,-2.068 1.589,-2.67l0.711,-0.704l-4.627,-4.33l-0.029,0.025l-0.029,-0.025l-4.628,4.328l0.71,0.705c0.552,0.602 1.232,1.52 1.589,2.67c0.001,0.001 0.358,1.297 0.358,3.297c-1.172,-1.516 -2.02,-2.293 -2.02,-2.293c-0.735,-0.735 -1.357,-1.214 -1.776,-1.501c0,0 -0.352,-0.242 -0.856,-0.564l-4.697,4.511l1.59,0.559c3.211,1.131 6.759,4.374 6.759,8.288c0,1.217 -1.149,5 -6,5c-3.642,0 -7,-2.268 -7,-8c0,-4.256 1.85,-7.926 5.285,-11.804l4.715,-5.196l-6.035,3.621c-6.498,3.843 -10.494,10.321 -10.965,17.841v1.72c0,12.582 10.318,22.818 23,22.818c12.682,0 23,-10.236 23,-22.818v-1.72c-0.471,-7.52 -4.467,-13.998 -10.965,-17.841z"></path></g></g></svg>